<?xml version="1.0" encoding="UTF-8"?>
<svg id="_레이어_1" data-name="레이어 1" xmlns="http://www.w3.org/2000/svg" viewBox="0 0 64 64">
  <defs>
    <style>
      .cls-1 {
        fill: #ffc145;
      }

      .cls-1, .cls-2 {
        stroke-width: 0px;
      }

      .cls-2 {
        fill: #fefefe;
      }
    </style>
  </defs>
  <rect class="cls-1" x=".5" y=".5" width="63" height="63" rx="23.92" ry="23.92"/>
  <path class="cls-2" d="M58.42,32.47c-1.23-3.16-2.8-6.16-4.46-9.11-1.18-2.1-2.65-4-4.2-5.85-1.29-1.53-2.62-3.02-4.22-4.24-1-.77-2-1.55-3.15-2.09-2.35-1.1-4.78-1.92-7.36-2.26-1.05-.14-2.1-.27-3.16-.18-.75.06-1.5.14-2.25.22-1.38.14-2.76.31-4.12.54-2.17.37-4.1,1.32-5.9,2.58-2.06,1.44-3.85,3.19-5.52,5.05-3.57,3.98-6.4,8.44-8.58,13.32-1.34,3.01-2.03,6.15-1.46,9.46.16.92.39,1.82.96,2.59.81,1.08,1.94,1.33,3.12.68.35-.19.67-.42.95-.69,1.55-1.49,2.61-3.31,3.41-5.28.61-1.5,1.02-3.06,1.57-4.58.47-1.29,1.01-2.56,1.39-3.89.12-.41.2-.83.36-1.22.19-.49.59-.74,1.12-.74.52,0,.89.25,1.1.72.16.35.17.72.08,1.1-.35,1.57-.99,3.05-1.53,4.55-.49,1.35-.99,2.7-1.32,4.1-.17.72-.26,1.47-.39,2.2-.34,2.08-.51,4.17-.33,6.28.11,1.3.4,2.56.99,3.73,1.02,2.02,2.71,3.32,4.7,4.26,1.37.64,2.86.87,4.34,1.12,1.55.25,3.12.25,4.74.3.15,0,.35,0,.56,0,3.41-.05,6.75-.65,10.07-1.41,2.35-.54,4.28-1.77,5.69-3.73,1-1.38,1.75-2.91,2.36-4.5.53-1.39.8-2.85.99-4.32.12-.91.2-1.81.08-2.72-.06-.44-.03-.87.17-1.27.21-.44.56-.69,1.05-.7.51,0,.86.25,1.08.71.08.17.14.35.17.53.2,1.22.41,2.45.57,3.68.13,1,.25,1.99.56,2.95.3.93.75,1.76,1.54,2.39,1.04.82,2.86.81,3.75-.11.46-.47.96-.91,1.42-1.4.33-.35.53-.76.63-1.23.22-1.07.17-2.14.13-3.22-.1-2.87-.66-5.64-1.71-8.32ZM26.62,33.6c-.99.65-2.16.44-2.87-.5-.64-.84-.83-1.82-.87-2.83-.06-1.47.21-2.91.65-4.31.32-1.03.54-2.08.84-3.11.24-.85.53-1.68,1.11-2.37.38-.45.85-.72,1.43-.81.64-.09,1.27.22,1.62.82.38.64.49,1.36.52,2.09.03.73,0,1.47,0,2.21.11,1.53.07,3.05-.2,4.55-.24,1.32-.64,2.59-1.52,3.65-.2.24-.44.44-.7.61ZM38.79,47.54c-.34.45-.94.61-1.48.4-.33-.13-.56-.39-.75-.68-1.26-1.95-2.68-3.79-3.97-5.72-.06-.08-.09-.18-.22-.25-.07.22-.13.44-.2.65-.53,1.74-1.01,3.5-1.42,5.27-.03.14-.06.28-.07.43-.05.81-.71,1.38-1.51,1.28-.77-.1-1.25-.82-1.07-1.63.52-2.25,1.12-4.47,1.8-6.68.12-.39.23-.77.35-1.16.03-.1.08-.19-.03-.28-.41-.38-.72-.86-1.14-1.23-.21-.18-.43-.32-.66-.46-.91-.54-.93-1.66-.04-2.24.47-.31,1.02-.45,1.56-.61,1.16-.34,2.34-.52,3.55-.56.65-.02,1.3-.05,1.96-.08.39-.02.76.03,1.12.19.7.31.99,1.02.69,1.73-.16.38-.42.69-.71.98-.83.85-1.64,1.74-2.75,2.29.37.47.7.91,1.05,1.35,1.23,1.56,2.41,3.17,3.5,4.83.12.18.27.34.4.51.37.5.38,1.19.03,1.65ZM42.42,31.94c-.14.37-.32.72-.58,1.02-.69.81-1.78.87-2.56.15-.5-.47-.77-1.07-.93-1.72-.28-1.08-.35-2.18-.41-3.29-.05-.93-.09-1.86-.13-2.79-.01-.26-.02-.52.05-.77.06-.22.14-.47.34-.58.62-.33,1.21-.76,1.97-.71.81.06,1.41.45,1.79,1.16.38.71.54,1.5.67,2.28.12.78.24,1.55.22,2.35-.02.98-.08,1.96-.43,2.9Z"/>
</svg>